<?xml version="1.0" encoding="utf-8"?>
<!-- Uploaded to: SVG Repo, www.svgrepo.com, Generator: SVG Repo Mixer Tools -->
<svg width="800px" height="800px" viewBox="-56.87 0 352.261 352.261" xmlns="http://www.w3.org/2000/svg"><defs><style>.a{fill:#ffffff;}.b{fill:#211715;}.c{fill:#bdbdbd;}.d{fill:#7a7473;}.e{fill:#3f88c9;}</style></defs><path class="a" d="M168.805,85.606a7.687,7.687,0,0,1,6.15-1.8,7.261,7.261,0,0,1,5.218,3.469,10.274,10.274,0,0,1,1.074,4.128,30.751,30.751,0,0,1-3.135,16.3,19.549,19.549,0,0,1-5.053,6.632,12.962,12.962,0,0,1-6.025,2.716l-1.032.159c-.494,1.85-1.05,3.41-1.322,4.237-1.658,4.5-10.511,19.455-21.9,26.163.014,3.518.206,7.179,1.379,10.083,2.528,6.263,16.19,14.142,17.13,14.553,0,0-4.281,28.89-44.281,28.89s-41.449-28.89-41.449-28.89c.941-.411,12.456-7.193,14.994-13.455,1.3-3.211,1.395-7.329,1.379-11.148A46.957,46.957,0,0,1,79.364,136.8a52.276,52.276,0,0,1-9.964-19.45l-1.965-.3a12.958,12.958,0,0,1-6.025-2.716,19.536,19.536,0,0,1-5.053-6.632,30.732,30.732,0,0,1-3.135-16.3A10.241,10.241,0,0,1,54.3,87.275a7.257,7.257,0,0,1,5.218-3.469,7.684,7.684,0,0,1,6.149,1.8s-6.658-46.472,50.453-46.472S168.805,85.606,168.805,85.606Z"/><path class="b" d="M140.384,148.548c.072,3.977.3,8.433,2.508,11.884a27.852,27.852,0,0,0,5.963,6.3,76.674,76.674,0,0,0,7.191,5.2,33.17,33.17,0,0,0,4.029,2.392,2.472,2.472,0,0,0,3.284-.861,2.42,2.42,0,0,0-.861-3.284,31,31,0,0,1-3.637-2.141A69.866,69.866,0,0,1,152.7,163.7a42.184,42.184,0,0,1-3.24-2.852c-.449-.442-.886-.9-1.3-1.372a9.55,9.55,0,0,1-.864-1.082,8.06,8.06,0,0,1-1.532-3.636,30.252,30.252,0,0,1-.581-6.214c-.056-3.085-4.856-3.095-4.8,0Z"/><path class="b" d="M76.767,174.317a28.283,28.283,0,0,0,3.879-2.372,57.518,57.518,0,0,0,6.645-5.142,21.5,21.5,0,0,0,5.137-6.36c1.736-3.662,1.885-7.883,1.9-11.866.014-3.089-4.785-3.093-4.8,0a43.433,43.433,0,0,1-.283,5.633,18.266,18.266,0,0,1-.514,2.47,8.278,8.278,0,0,1-.673,1.785,19.674,19.674,0,0,1-4.62,5.352,50.356,50.356,0,0,1-5.627,4.256,26.393,26.393,0,0,1-3.47,2.1,2.419,2.419,0,0,0-.861,3.284,2.457,2.457,0,0,0,3.283.861Z"/><path class="c" d="M77.8,164.554a61.333,61.333,0,0,0-12.019,12.5l-29.075.977c-4.78,2.03-10.79,4.37-13.27,7.39-2.58,3.14-3.83,6.99-4.97,10.76a456.7,456.7,0,0,0-14.52,63.81c-1.59,10.41-2.78,21.22.71,31.24s12.82,19.11,24.45,19.86a26.1,26.1,0,0,0,12.753-2.535c.081,4.236.028,8.545.028,13.066,0,9.75-.58,16.95-.59,28.02l194.821-.073c-4.791-66.2-9.828-125.138-15.886-145.331-1.742-5.807-4.356-9.292-7.259-11.615s-7.732-3.865-11.088-5.486c-10.908-5.269-25.15-11.136-36.33-15.8l-2.132-.89a59.654,59.654,0,0,0-10.992-9.038c-4.883,20.932-13.558,43.528-20.435,63.893q-6.921,20.5-13.843,40.994C112,251.04,107.928,240.771,102.705,225.3c-6.877-20.365-15.552-42.961-20.435-63.893A44.93,44.93,0,0,0,77.8,164.554Z"/><path class="d" d="M177.79,48.863q-.444-1.559-.994-3.1c-3.417-9.555-10.3-21.324-19.873-25.385l-8.291-6.292c-3.459-3.863-10.915-7.864-16.95-9.52a54.351,54.351,0,0,0-18.721-2.029C97.371,3.674,84.12,9.5,73.8,21.322L67.711,29.3C57.266,40.615,51.441,57.175,56.976,82.029l.531,2.385a7.189,7.189,0,0,1,2.007-.608,7.684,7.684,0,0,1,6.149,1.8l5.786-5.139c6.215-1.849,9.123-6.782,12.112-12.833,2.16-4.373,3.446-9.484,7.141-12.6,2.783-2.343,6.5-3.137,10.078-3.515a71.219,71.219,0,0,1,18.627.511c6.487,1.1,13.487-1.678,20.74.114,8.2,1.764,13.243,6.769,17.368,13.2a40.771,40.771,0,0,1,3.9,7.851,41.262,41.262,0,0,1,1.481,4.9c.389,1.649.627,3.26.88,4.962a3.9,3.9,0,0,0,1.618,2.521,4,4,0,0,0,3.411.027,7.687,7.687,0,0,1,6.15-1.8,7.483,7.483,0,0,1,1.482.381A58.678,58.678,0,0,0,177.79,48.863Z"/><path class="b" d="M139.509,54.462a22.027,22.027,0,0,1,9.55,4.561,33.843,33.843,0,0,1,6.993,8.514,39.009,39.009,0,0,1,4.942,13.211c.4,2.223.488,4.434,2.193,6.128a5.926,5.926,0,0,0,6.256,1.044,2.464,2.464,0,0,0,1.677-2.952,2.421,2.421,0,0,0-2.953-1.677c-.436.16-1.138.484-1.586.191-.562-.366-.54-1.407-.628-1.982a46.554,46.554,0,0,0-1.475-6.738,44.265,44.265,0,0,0-5.993-12.278c-4.357-6.242-10.151-10.969-17.7-12.65-3.01-.671-4.295,3.956-1.276,4.628Z"/><path class="b" d="M120.045,49.719a65.629,65.629,0,0,0-13.257-.954c-4.273.085-8.9.26-12.932,1.79a16.786,16.786,0,0,0-9.288,8.923c-1.8,3.725-3.212,7.584-5.314,11.167-2,3.415-4.558,6.3-8.443,7.508-2.941.912-1.686,5.547,1.276,4.629,7.735-2.4,11.754-9.573,14.749-16.591,1.463-3.429,2.818-7.6,6.038-9.806,3.346-2.3,7.756-2.556,11.685-2.745a61.951,61.951,0,0,1,14.21.708,2.466,2.466,0,0,0,2.952-1.676,2.422,2.422,0,0,0-1.676-2.953Z"/><path class="b" d="M170.5,87.3a5.22,5.22,0,0,1,7.225.6c1.046,1.316,1.136,3.214,1.2,4.82a27.368,27.368,0,0,1-.323,5.726c-1.151,6.756-4.691,14.986-12.213,16.287a2.42,2.42,0,0,0-1.677,2.952,2.456,2.456,0,0,0,2.953,1.676c7.9-1.366,12.58-8.847,14.711-15.983A32.551,32.551,0,0,0,183.7,92.062c-.247-3.834-1.405-7.437-4.938-9.431a10.189,10.189,0,0,0-11.65,1.278,2.421,2.421,0,0,0,0,3.394,2.452,2.452,0,0,0,3.395,0Z"/><path class="b" d="M67.36,83.909A10.15,10.15,0,0,0,57.1,81.987c-3.768,1.484-5.7,4.654-6.187,8.567a31.725,31.725,0,0,0,5.4,21.756A16.654,16.654,0,0,0,66.8,119.363a2.469,2.469,0,0,0,2.952-1.676,2.419,2.419,0,0,0-1.676-2.952c-7.522-1.3-11.062-9.533-12.213-16.287a27.281,27.281,0,0,1-.331-5.506c.056-1.618.119-3.536,1.114-4.9a5.189,5.189,0,0,1,7.323-.743,2.464,2.464,0,0,0,3.394,0,2.421,2.421,0,0,0,0-3.394Z"/><path class="b" d="M155.711,22.451c7.565,3.285,12.6,10.588,16.14,17.754a55.71,55.71,0,0,1,2.96,41.4c-.957,2.945,3.676,4.207,4.628,1.277a60.168,60.168,0,0,0-9.921-55.35,30.6,30.6,0,0,0-11.384-9.229,2.48,2.48,0,0,0-3.284.861,2.419,2.419,0,0,0,.861,3.284Z"/><path class="b" d="M66.014,27.6A50.705,50.705,0,0,0,55.7,44.422a58.256,58.256,0,0,0-3.2,22.431,91.052,91.052,0,0,0,2.159,15.814c.664,3.016,5.293,1.74,4.628-1.276-3.129-14.2-3.231-29.653,4.288-42.526A44.876,44.876,0,0,1,69.408,31c2.086-2.272-1.3-5.676-3.394-3.394Z"/><path class="b" d="M150.329,12.39c-3.7-4.045-8.932-6.758-13.96-8.763a54.156,54.156,0,0,0-18.3-3.6A61.043,61.043,0,0,0,86.119,7.988,56.808,56.808,0,0,0,72.106,19.625c-2.031,2.312,1.351,5.72,3.394,3.394A51.872,51.872,0,0,1,100,7.239a55.467,55.467,0,0,1,32.488.074c5.181,1.668,10.726,4.405,14.447,8.471,2.089,2.284,5.476-1.118,3.394-3.394Z"/><path class="b" d="M134.757,51.9c-1.528-4.806-5.635-8.384-10.136-10.4a28.439,28.439,0,0,0-16.464-2.078,2.419,2.419,0,0,0-1.676,2.952,2.458,2.458,0,0,0,2.952,1.677A22.808,22.808,0,0,1,122.2,45.643c3.312,1.453,6.787,3.936,7.929,7.531.932,2.933,5.568,1.68,4.629-1.276Z"/><path class="a" d="M119.934,170.467a.777.777,0,0,0-.2.2h-4.544a5.877,5.877,0,0,0-2.013-1.138c-10.353-4.165-18.992-10.517-22.775-15.6-3.732,3.431-4.918,6.085-7.345,10.734,4.984,20,13.123,41.326,19.646,60.641,5.223,15.467,9.292,25.736,15.446,40.994q6.921-20.5,13.843-40.994c6.554-19.41,14.742-40.847,19.721-60.938-2.325-4.466-3.538-7.08-7.19-10.437-3.784,5.086-12.422,11.438-22.776,15.6A8.991,8.991,0,0,0,119.934,170.467Z"/><path class="b" d="M164.554,111.327a25.9,25.9,0,0,1-1.24,6.559c-.245.817-.514,1.625-.785,2.433-.073.218-.153.435-.226.654-.213.635.117-.235-.038.1a54.078,54.078,0,0,1-3.4,6.221,60.941,60.941,0,0,1-13.692,15.785,25.957,25.957,0,0,1-10.057,5.078c-3.009.692-1.735,5.321,1.276,4.628,7.642-1.759,14.052-7.233,19.111-12.986a66.723,66.723,0,0,0,10.719-15.888,33.779,33.779,0,0,0,3.13-12.588c.1-3.089-4.7-3.085-4.8,0Z"/><path class="b" d="M65.43,110.612c2.8,16.128,11.529,31.926,26.454,39.74a36.11,36.11,0,0,0,13.123,3.945,2.416,2.416,0,0,0,2.4-2.4,2.455,2.455,0,0,0-2.4-2.4c-15.4-1.6-27.386-15.44-32.2-29.315a68.87,68.87,0,0,1-2.745-10.846,2.42,2.42,0,0,0-2.953-1.676,2.455,2.455,0,0,0-1.676,2.952Z"/><path class="b" d="M73.477,221.527c8.548,14.452,17.352,28.751,26.21,43.015,1.626,2.619,5.78.211,4.144-2.423C94.973,247.855,86.17,233.557,77.622,219.1c-1.572-2.656-5.723-.244-4.145,2.423Z"/><path class="a" d="M135.406,187.979a101.432,101.432,0,0,0,15.68-24.826c-1.945-3.751-3.253-6.182-6.561-9.224-3.784,5.086-12.422,11.438-22.776,15.6a5.877,5.877,0,0,0-2.013,1.138c-.247.462.235.867.461,1.23.357.57,2.106,2.033,5.082,5.3C128.656,180.906,132.611,184.64,135.406,187.979Z"/><path class="a" d="M99.523,187.979a101.372,101.372,0,0,1-15.68-24.826c1.945-3.751,3.252-6.182,6.561-9.224,3.783,5.086,12.422,11.438,22.775,15.6a5.877,5.877,0,0,1,2.013,1.138c.248.462-.234.867-.461,1.23-.356.57-2.1,2.033-5.081,5.3C106.273,180.906,102.318,184.64,99.523,187.979Z"/><path class="e" d="M120.354,173.605c-2.556.009-4.681.014-7.264.016-.847.839-2,2-3.44,3.578-.772.847-1.573,1.695-2.384,2.539.57,2.959.97,4.829,1.6,7.521.1.473.22.93.338,1.4a12.986,12.986,0,0,1,.508,3.111c0,.6-2.96,22.2-5.031,39.291,4.335,12.446,8.113,21.949,13.471,35.234q6.348-18.8,12.7-37.6c-2.6-17.419-5.362-35.621-5.345-36.585a18.979,18.979,0,0,1,1.218-5.513c.729-2.239,1.177-4.2,1.653-6.122-1.052-1.088-2.1-2.184-3.095-3.278-1.452-1.593-2.612-2.758-3.461-3.6Z"/><path class="b" d="M110.429,194.03c4.87,0,9.74-.108,14.61-.109a2.4,2.4,0,0,0,0-4.8c-4.87,0-9.74.107-14.61.109a2.4,2.4,0,1,0,0,4.8Z"/><path class="b" d="M105.181,181.556c.405,2.045.849,4.081,1.317,6.113a15.612,15.612,0,0,1,.8,4.269c-.087,1.454-.363,2.918-.551,4.361-.874,6.69-1.762,13.378-2.622,20.069q-.877,6.819-1.716,13.643a2.413,2.413,0,0,0,2.4,2.4,2.459,2.459,0,0,0,2.4-2.4q1.455-11.913,3.037-23.81c.614-4.684,1.461-9.4,1.836-14.112a14.687,14.687,0,0,0-.681-4.534c-.586-2.412-1.108-4.84-1.59-7.275a2.424,2.424,0,0,0-2.953-1.676,2.448,2.448,0,0,0-1.676,2.952Z"/><path class="b" d="M121.54,171.207q-4.332.007-8.664.018a2.4,2.4,0,1,0,0,4.8q4.332-.009,8.664-.018a2.4,2.4,0,0,0,0-4.8Z"/><path class="b" d="M133.161,228.047q-1.7-11.376-3.4-22.752-.628-4.233-1.241-8.469-.207-1.444-.406-2.889c-.066-.48.057.451-.021-.154-.02-.151-.04-.3-.059-.451-.031-.249-.069-.5-.09-.75a8.9,8.9,0,0,1,.394-3.079c.568-2.128,1.31-4.2,1.849-6.341.754-3-3.874-4.274-4.629-1.276-.837,3.327-2.6,6.887-2.446,10.369.065,1.447.364,2.909.565,4.341.882,6.269,1.833,12.53,2.77,18.791q1.044,6.969,2.087,13.936A2.418,2.418,0,0,0,131.485,231a2.463,2.463,0,0,0,1.676-2.953Z"/><path class="b" d="M114.435,269.814a49.777,49.777,0,0,0-2.729,16.154c.066,3.5.454,7.008.674,10.5.668,10.557,1.1,21.124,1.838,31.678q.757,10.866,1.709,21.716a2.464,2.464,0,0,0,2.4,2.4,2.417,2.417,0,0,0,2.4-2.4c-1.823-20.745-2.738-41.533-4.147-62.305a43.91,43.91,0,0,1,2.484-16.466c.959-2.944-3.674-4.2-4.629-1.276Z"/><path class="b" d="M119.063,271.09q7.543-22.339,15.087-44.678c4.632-13.715,9.643-27.3,14.044-41.1,2.449-7.677,4.709-15.419,6.549-23.267l-3.526,1.434a53.813,53.813,0,0,1,9.88,8.027,55.418,55.418,0,0,1,4.433,4.946c.586.748,1.137,1.524,1.655,2.321.261.4.513.808.752,1.222q.151.264.3.532c.071.13.139.261.206.393q.173.352-.058-.192l.328-1.212c.185-.18.155-.187-.092-.019l-.632.349-.844.465-2.321,1.28-4.43,2.443a2.42,2.42,0,0,0-.485,3.77c2.2,1.989,4.383,3.991,6.5,6.063q.774.756,1.535,1.525c.381.386,1.128.878,1.332,1.373.111.271.066.033.065-.034,0,.15-.149.337-.208.461-.327.676-.709,1.333-1.063,2q-3.978,7.446-8.1,14.815-8.431,15.111-17.247,30-4.829,8.2-9.716,16.368c-1.589,2.658,2.559,5.074,4.144,2.423,12.292-20.564,24.449-41.229,35.7-62.384.795-1.5,1.556-2.944,1.153-4.687-.39-1.687-1.839-2.9-3.007-4.068-2.488-2.5-5.087-4.881-7.7-7.247l-.486,3.769,5.907-3.258c1.725-.952,4.365-1.865,4.461-4.193.063-1.523-.967-3-1.763-4.241a43.777,43.777,0,0,0-2.952-4,59.907,59.907,0,0,0-14.827-13.155,2.421,2.421,0,0,0-3.526,1.435c-3.335,14.23-8.016,28.107-12.808,41.9q-7.321,21.076-14.455,42.214l-8.417,24.926c-.99,2.933,3.644,4.192,4.629,1.276Z"/><path class="b" d="M164.915,173.653c7.13,2.974,14.269,5.931,21.354,9.011,6.8,2.956,13.522,6.089,20.294,9.105a19.285,19.285,0,0,1,7.394,5.184,23.014,23.014,0,0,1,4.073,8.309c1.015,3.463,1.753,7.007,2.422,10.55,2,10.578,3.294,21.153,4.5,31.835,1.656,14.613,3,29.26,4.254,43.913,1.459,17.1,2.765,34.2,4.018,51.317q.244,3.346.487,6.694a2.459,2.459,0,0,0,2.4,2.4,2.421,2.421,0,0,0,2.4-2.4c-1.277-17.636-2.6-35.268-4.073-52.888-1.266-15.163-2.628-30.32-4.286-45.446-1.258-11.475-2.625-22.965-4.644-34.334-1.694-9.545-3.452-20.729-11.88-26.765-2.9-2.072-6.371-3.182-9.589-4.631-3.4-1.529-6.744-3.176-10.148-4.7-7.437-3.323-14.952-6.47-22.47-9.6l-5.235-2.182a2.414,2.414,0,0,0-2.953,1.676,2.461,2.461,0,0,0,1.677,2.952Z"/><path class="b" d="M137.1,189.676a107.572,107.572,0,0,0,12.7-18.51q1.272-2.389,2.434-4.835c.438-.919,1.249-2.136,1.249-3.178a7.111,7.111,0,0,0-1.23-2.932,30.313,30.313,0,0,0-6.034-7.989,2.447,2.447,0,0,0-3.77.486c-3.958,5.246-10.729,9.425-16.763,12.427-1.935.963-3.965,1.706-5.907,2.646-2,.968-3.27,2.856-1.9,4.981a13.23,13.23,0,0,0,1.906,2.194c1.3,1.283,2.563,2.588,3.8,3.93,3.334,3.63,6.945,7.012,10.127,10.78a2.419,2.419,0,0,0,3.394,0,2.452,2.452,0,0,0,0-3.394c-2.986-3.535-6.363-6.715-9.507-10.106-1.33-1.433-2.659-2.862-4.047-4.239-.406-.4-.805-.812-1.213-1.212-.151-.149-.525-.67-.021.031-.059-.083-.379-.653-.333-.454v1.276l.069-.27-.618,1.059c-.255.3.081-.071.254-.166.229-.126.462-.247.7-.355.743-.336,1.511-.621,2.259-.946q2.06-.891,4.06-1.909a68.524,68.524,0,0,0,7.453-4.393A43.243,43.243,0,0,0,146.6,155.14l-3.769.486a30.5,30.5,0,0,1,6.185,8.738v-2.423a107.711,107.711,0,0,1-15.3,24.341,2.465,2.465,0,0,0,0,3.394A2.419,2.419,0,0,0,137.1,189.676Z"/><path class="b" d="M101.22,186.282a107.68,107.68,0,0,1-15.3-24.341v2.423a30.518,30.518,0,0,1,6.186-8.738l-3.769-.486A43.225,43.225,0,0,0,98.77,164.6a68.516,68.516,0,0,0,7.256,4.292q1.994,1.023,4.048,1.92c.748.326,1.508.623,2.255.95.254.111.507.222.752.353.166.089.713.6.414.254l-.617-1.059.069.27V170.3c.046-.2-.274.371-.334.454.5-.7.131-.18-.021-.031-.407.4-.807.809-1.212,1.212-1.389,1.377-2.718,2.806-4.047,4.239-3.145,3.391-6.522,6.571-9.507,10.106a2.464,2.464,0,0,0,0,3.394,2.42,2.42,0,0,0,3.394,0c2.787-3.3,5.918-6.289,8.876-9.431,1.419-1.507,2.8-3.041,4.266-4.5a25.191,25.191,0,0,0,2.152-2.245c1.26-1.62,1.659-3.66-.223-5.03-1.589-1.156-3.667-1.716-5.442-2.545a68.373,68.373,0,0,1-10.79-6.256,45.1,45.1,0,0,1-4.321-3.492,30.612,30.612,0,0,1-3.262-3.455,2.446,2.446,0,0,0-3.769-.486,30.308,30.308,0,0,0-6.034,7.989,7.135,7.135,0,0,0-1.23,2.932,7.853,7.853,0,0,0,1.156,2.984q1.209,2.541,2.527,5.029a107.516,107.516,0,0,0,12.7,18.51,2.418,2.418,0,0,0,3.394,0A2.451,2.451,0,0,0,101.22,186.282Z"/><path class="b" d="M194.541,349.861c-.016-9.666-.576-19.319-.589-28.985-.014-10.654-.082-21.246,1.813-31.769,3.644-20.243,6.685-40.6,9.313-61,1.347-10.458,2.575-20.932,3.614-31.425a2.417,2.417,0,0,0-2.4-2.4,2.454,2.454,0,0,0-2.4,2.4c-1.924,19.421-4.441,38.787-7.333,58.086q-2.274,15.172-4.928,30.284a147.579,147.579,0,0,0-2.149,15.972c-.349,5.261-.355,10.535-.34,15.805.031,11.014.581,22.015.6,33.027,0,3.089,4.8,3.094,4.8,0Z"/><path class="b" d="M134.054,279.587c.262.236.474.516.727.758q-.369-.488-.155-.191c.046.065.09.131.132.2.073.114.14.231.2.351.1.192.207.605-.029-.116.045.137.1.27.146.409a5.331,5.331,0,0,1,.18.818l-.086-.638a5.88,5.88,0,0,1,0,1.482l.086-.638a6.447,6.447,0,0,1-.17.822c-.031.114-.067.228-.105.341s-.229.58-.032.114,0-.025-.05.084-.107.2-.166.3-.114.181-.172.271c-.247.38.421-.485.145-.185-.066.072-.566.656-.631.614-.01-.007.567-.4.194-.161-.058.037-.115.077-.174.114-.132.082-.268.159-.407.229-.062.032-.126.06-.188.091-.336.166.5-.187.235-.1-.134.043-.264.1-.4.136a6.691,6.691,0,0,1-.98.215l.638-.086a7.015,7.015,0,0,1-1.779.006l.638.086a8.16,8.16,0,0,1-1.369-.351c.728.235.4.174.216.083-.115-.056-.228-.117-.338-.183-.081-.049-.159-.1-.239-.155-.327-.21.516.443.137.1a8.59,8.59,0,0,1-.612-.61c-.281-.31.348.514,0,0-.065-.1-.127-.2-.185-.3s-.1-.2-.158-.305c-.186-.361.222.628.039.056a4.742,4.742,0,0,1-.168-.735l.086.638a5.14,5.14,0,0,1,0-1.27l-.086.638a5.942,5.942,0,0,1,.194-.887c.042-.138.091-.273.139-.409.161-.452-.245.5-.028.074a9.19,9.19,0,0,1,.451-.813q.119-.185.246-.363a.881.881,0,0,1,.13-.176c-.067.052-.4.486-.137.188.088-.1.174-.2.27-.293s.459-.386.095-.107.033-.014.132-.076c.132-.083.269-.159.408-.229a1.2,1.2,0,0,1,.19-.091c.007.007-.6.228-.278.118.136-.047.27-.1.407-.139a6.481,6.481,0,0,1,.964-.2l-.638.086a6.289,6.289,0,0,1,1.545,0l-.638-.086a5.958,5.958,0,0,1,.649.129c.088.024.176.05.263.078s.5.193.073.013c-.405-.172-.079-.032.013.015s.194.1.288.158.184.119.276.179c.334.219-.464-.379-.139-.1a2.552,2.552,0,0,0,1.7.7,2.4,2.4,0,0,0,1.7-4.1,7.544,7.544,0,0,0-4.841-1.843,8.01,8.01,0,0,0-4.445,1.218,8.483,8.483,0,0,0-3.556,8.537,7.345,7.345,0,0,0,3.018,4.295,8.251,8.251,0,0,0,11.419-2.595,8.278,8.278,0,0,0,.954-4.426,7.847,7.847,0,0,0-2.549-5.186,2.4,2.4,0,0,0-3.394,3.394Z"/><path class="b" d="M119.971,264.435c-5.174-12.842-10.19-25.731-14.639-38.845-4.7-13.859-9.75-27.6-14.2-41.55-2.449-7.677-4.71-15.419-6.55-23.267a2.42,2.42,0,0,0-3.525-1.435,58.685,58.685,0,0,0-17.352,16.507c-1.753,2.553,2.4,4.956,4.144,2.423a52.975,52.975,0,0,1,15.63-14.785l-3.525-1.434c3.335,14.23,8.016,28.107,12.808,41.9,4.671,13.447,9.137,26.984,14.146,40.31,2.7,7.192,5.561,14.324,8.432,21.451a2.477,2.477,0,0,0,2.953,1.676,2.416,2.416,0,0,0,1.676-2.952Z"/><path class="b" d="M39.495,311.724c.069,12.65-.579,25.275-.6,37.92-.005,3.089,4.795,3.094,4.8,0,.021-12.645.669-25.27.6-37.92-.017-3.087-4.817-3.094-4.8,0Z"/><path class="a" d="M31.173,209.4a1.084,1.084,0,0,1,.059-.168c2.264-6.333,5.008-14.49,5.951-17.806a28.476,28.476,0,0,0,1.3-7.344,31.571,31.571,0,0,0-1.806-9.321c-3-9.93-5.643-13.812-8.634-23.742-.632-2.078-1.255-4.346-.574-6.391a10.625,10.625,0,0,1,.216-1.334c.681-3.088,3.541-6.793,5.16-8.742,5.061-6.057,7.814-8.84,12.243-12.2a10.95,10.95,0,0,1,3.728-1.215,16.947,16.947,0,0,1,4.3.5c1.659.552,10.056,4.434,7.972,9.68l8.241,29.012a27.7,27.7,0,0,1-5.96,24.665,15.2,15.2,0,0,0-2.906,3.888,12.394,12.394,0,0,0-.54,5.054,143.38,143.38,0,0,1-.777,19.25,2.055,2.055,0,0,1-.037.258Z"/><path class="b" d="M61.425,214.082a108.8,108.8,0,0,0,.907-12.73q.079-3.213.015-6.427c-.033-1.664-.333-3.63.358-5.2.643-1.461,2.007-2.568,3-3.786A29.448,29.448,0,0,0,72.112,171.7a30.519,30.519,0,0,0-.467-12.013c-.735-3-5.365-1.728-4.629,1.276a25.361,25.361,0,0,1-2.542,18.327,23.508,23.508,0,0,1-2.672,3.854,20.107,20.107,0,0,0-3.326,4.338c-1.65,3.519-.871,7.874-.906,11.642a103.823,103.823,0,0,1-.774,13.678,2.48,2.48,0,0,0,1.676,2.952,2.418,2.418,0,0,0,2.953-1.676Z"/><path class="d" d="M46.367,119.111c-.665-5.038-1.541-14.55-2.062-20.56a3.9,3.9,0,0,1,4.831-4.118c3.874.971,8.957,2.422,11.893,3.36A3.88,3.88,0,0,1,63.7,100.98c1.411,10.52,7.205,52.373,9.362,68.5a3.9,3.9,0,0,1-5.114,4.2c-4.853-1.639-10.957-3.76-12.552-4.341Z"/><path class="b" d="M48.767,119.111c-.65-4.969-1.1-9.965-1.562-14.954q-.159-1.733-.312-3.464c-.079-.884-.466-2.324-.069-3.142a1.553,1.553,0,0,1,1.307-.837,14.48,14.48,0,0,1,3.848.944c2.624.712,5.242,1.455,7.838,2.267a1.882,1.882,0,0,1,1.464,1.188c.2.486-.029-.3.054.121.053.266.076.561.113.837l.1.781q.57,4.215,1.149,8.43,3.426,25.032,6.861,50.063.385,2.829.767,5.66.088.653.176,1.306c.064.473.011.078,0-.015.036.267.074.533.107.8.093.737.2,1.484-.4,2.029-.9.813-2.2.052-3.152-.271q-2.151-.732-4.3-1.473c-2.245-.774-4.493-1.542-6.725-2.351a2.423,2.423,0,0,0-2.953,1.676,2.45,2.45,0,0,0,1.677,2.952c2.106.764,4.227,1.49,6.345,2.221q2.144.74,4.291,1.471a10.611,10.611,0,0,0,4.24.922,6.366,6.366,0,0,0,5.86-6.088,35.893,35.893,0,0,0-.675-5.484q-1.791-13.246-3.618-26.487-1.884-13.731-3.769-27.461-.629-4.588-1.251-9.177-.048-.356-.1-.713c-.068-.5.081.6.016.118a9.669,9.669,0,0,0-.146-.978,6.35,6.35,0,0,0-2.79-3.847,15.476,15.476,0,0,0-3.7-1.355q-2.292-.689-4.6-1.327c-3.068-.853-6.747-2.479-9.78-.743a6.371,6.371,0,0,0-2.941,3.7,11.968,11.968,0,0,0-.04,4.437c.54,6.087,1.067,12.185,1.859,18.245a2.478,2.478,0,0,0,2.4,2.4,2.413,2.413,0,0,0,2.4-2.4Z"/><path class="a" d="M35.078,131.919a59.661,59.661,0,0,1,10.01-9.567,10.95,10.95,0,0,1,3.728-1.215,16.947,16.947,0,0,1,4.3.5c1.659.552,10.056,4.434,7.972,9.68l-.083.207c3.15-.3,7.176-.224,8.091,3.744a5.234,5.234,0,0,1-3.419,5.87l-1.878.734a5.8,5.8,0,0,1,4.865,4.1c.4,1.518-.51,4.911-4.86,6.551-1.48.558-3.1,1.185-4.824,1.846l.825.421c2.417,1.237,2.662,4.1,2.483,5.791-.184,1.745-1.01,2.778-2.765,4.063a23.787,23.787,0,0,1-4.935,2.667,9.13,9.13,0,0,0-2.107,1.532c-1.149,1.26-.717,3.413-.079,5.057l-16.052-.2c-2.868-9.161-5.426-13.114-8.308-22.683-.632-2.078-1.255-4.346-.574-6.391a10.625,10.625,0,0,1,.216-1.334c.681-3.088,3.541-6.793,5.16-8.742C33.642,133.6,34.381,132.725,35.078,131.919Z"/><path class="b" d="M45.508,137.739a41.817,41.817,0,0,1,9.914-3.109,40.612,40.612,0,0,1,8.164-.8,4.28,4.28,0,0,1,1.414.207,2.765,2.765,0,0,1,1.008.455,2.4,2.4,0,0,1,.594,2.791,3.356,3.356,0,0,1-.888,1.161,1.238,1.238,0,0,1-.525.358c.42-.2-.41.067-.6.1-2.1.379-4.194.771-6.272,1.258A64.808,64.808,0,0,0,44.7,144.948a2.422,2.422,0,0,0-.861,3.283,2.449,2.449,0,0,0,3.283.861,60.663,60.663,0,0,1,13.536-4.545q1.827-.405,3.668-.741a11.586,11.586,0,0,0,3.1-.766,7.914,7.914,0,0,0,3.693-4.189,7.13,7.13,0,0,0-4.594-9.374c-3.078-.971-6.565-.266-9.682.139a49.533,49.533,0,0,0-13.75,3.978,2.416,2.416,0,0,0-.861,3.284,2.459,2.459,0,0,0,3.283.861Z"/><path class="b" d="M63.208,144.213a4.05,4.05,0,0,1,2.242.946,3.165,3.165,0,0,1,.407.43c.064.089.4.666.324.5.088.2.1.448.2.635.14.266.031-.472-.027-.133a2.459,2.459,0,0,0-.012.43c-.017-.656.024-.156-.033.074-.049.2-.117.4-.183.593.132-.4.038-.078-.077.128-.1.182-.207.359-.322.533-.158.221-.165.236-.022.043-.074.09-.15.177-.23.261a7.02,7.02,0,0,1-.979.852,18.068,18.068,0,0,1-3.286,1.454c-1.33.509-2.659,1.022-3.99,1.528-2.986,1.136-5.985,2.235-9.015,3.245a2.455,2.455,0,0,0-1.676,2.952,2.424,2.424,0,0,0,2.952,1.677c3.672-1.224,7.3-2.583,10.909-3.969,2.951-1.132,6.382-1.988,8.559-4.431,1.564-1.757,2.649-4.248,2.034-6.624-.916-3.542-4.274-5.685-7.771-5.924a2.4,2.4,0,1,0,0,4.8Z"/><path class="b" d="M58.594,156.866s.653.428.37.2c.037.03.517.53.273.223a4.588,4.588,0,0,1,.366.595c.248.432,0-.172.1.273.051.217.11.437.167.653.146.548.014-.282.035.225.016.4.032.8.01,1.2,0,.086-.081.533-.019.218a4.282,4.282,0,0,1-.188.687c.156-.414-.109.163-.16.248-.235.387.107-.039-.212.268a13.409,13.409,0,0,1-2.692,2.009c-1.972,1.131-4.161,1.754-5.8,3.42-1.967,2-1.671,5.04-.762,7.46a2.466,2.466,0,0,0,2.952,1.676,2.419,2.419,0,0,0,1.676-2.952,9.071,9.071,0,0,1-.535-1.853c.049.341-.018-.481-.016-.451-.051-.717-.044.294.043-.387.057-.435.1-.177-.03-.031.1-.108.449-.419.445-.416a8.062,8.062,0,0,1,1.176-.74c2.374-1.176,4.72-2.188,6.662-4.066,3.51-3.393,2.949-10.183-1.445-12.6-2.708-1.49-5.133,2.654-2.423,4.145Z"/><path class="b" d="M33.488,210.036c1.391-4,2.807-8,4.136-12.027a66.293,66.293,0,0,0,2.963-10.735c.782-5.184-.588-10.07-2.164-14.974-1.259-3.92-2.813-7.721-4.357-11.534a84.985,84.985,0,0,1-4.239-12.3c-.929-3.957,1.243-7.684,3.539-10.743a80.249,80.249,0,0,1,7.769-8.821q1.819-1.8,3.807-3.41a12.967,12.967,0,0,1,1.561-1.206,8.505,8.505,0,0,1,2.283-.708c.073-.017.669-.111.3-.072-.336.035.238,0,.3.007.423.017.844.048,1.264.1a10.58,10.58,0,0,1,1.822.34c.185.057.364.136.545.206-.536-.208-.051-.018.193.1q.892.418,1.745.92a10.681,10.681,0,0,1,3.344,2.718,7.547,7.547,0,0,1,.632,1.212c.018.056.114.542.076.272-.036-.255.007.35,0,.411a2.989,2.989,0,0,1-.242.893,2.421,2.421,0,0,0,1.676,2.952,2.451,2.451,0,0,0,2.952-1.676c1.247-3.407-.59-6.77-3.2-8.935a18.282,18.282,0,0,0-6.8-3.79,12.016,12.016,0,0,0-10.557,1.842,61.958,61.958,0,0,0-8.271,7.792c-2.895,3.246-6.02,6.645-7.972,10.57a17.24,17.24,0,0,0-1.824,6.868c-.1,2.584.869,5.188,1.656,7.609,2.853,8.772,7.206,17.037,9.188,26.1,1.1,5.039-.377,9.768-1.913,14.538s-3.206,9.485-4.85,14.215c-1.016,2.924,3.619,4.18,4.629,1.276Z"/><path class="a" d="M28.787,197.724c-.243,2.182-.652,5.482-.823,7.839l-.042.576c7.615.162,28.561.667,35.082.914.15-3.33-.03-8.36-.03-9.72-4.64-.31-26.99-1.07-34.03-1.14C28.911,196.584,28.855,197.11,28.787,197.724Z"/><path class="b" d="M30.364,205.563c.238-3.133.7-6.241.98-9.37l-2.4,2.4c9.559.1,19.124.481,28.675.879,1.785.075,3.572.144,5.355.261l-2.4-2.4c.012,3.241.163,6.479.03,9.72-.128,3.089,4.672,3.083,4.8,0,.133-3.241-.018-6.479-.03-9.72a2.454,2.454,0,0,0-2.4-2.4c-9.123-.6-18.294-.764-27.431-1-2.2-.057-4.4-.113-6.6-.136a2.457,2.457,0,0,0-2.4,2.4c-.277,3.129-.742,6.237-.98,9.37a2.42,2.42,0,0,0,2.4,2.4,2.448,2.448,0,0,0,2.4-2.4Z"/><path class="c" d="M30.867,206.2c-3.339-.075-5.578-.12-5.744-.115-3.526,24.053-5.578,39.218-9.1,63.271H63.185q.162-1.791.293-3.576c1.8-24.175,1.727-45.783,1.87-58.6l-.588-.044C62.413,206.962,41.283,206.439,30.867,206.2Z"/><path class="b" d="M18.338,270c2.355-16.1,4.612-32.224,6.93-48.335q1.074-7.468,2.17-14.935l-2.314,1.762c2.875-.077,5.775.111,8.65.176q5.552.124,11.1.263c6.795.169,13.693.058,20.467.651l-2.4-2.4c-.178,16.526-.314,33.043-1.272,49.548-.98,16.882-1.607,37.668-17.526,47.825-6.607,4.215-14.707,5.526-22.059,2.456a27.937,27.937,0,0,1-14.7-15.29C3.9,282.865,4.5,273.052,5.791,263.81c1.419-10.17,3.3-20.289,5.469-30.326s4.678-20.021,7.518-29.9c1.294-4.5,2.356-9.352,4.514-13.54a12.642,12.642,0,0,1,3.183-4.25,26.642,26.642,0,0,1,5.244-3c1.945-.916,3.935-1.735,5.916-2.571a2.414,2.414,0,0,0,.861-3.283,2.465,2.465,0,0,0-3.284-.861c-4,1.69-8.212,3.263-11.669,5.961-3.7,2.886-5.518,7.546-6.895,11.885-3.254,10.256-5.986,20.7-8.424,31.181Q4.573,240.8,2.039,256.726c-1.621,10.2-3.172,20.733-.886,30.964a34.445,34.445,0,0,0,13.579,20.678,27.645,27.645,0,0,0,24.441,3.816A35.145,35.145,0,0,0,58.644,295.9c4.844-8.672,6.31-18.629,7.1-28.391,1.492-18.512,1.81-37.088,1.96-55.65q.02-2.339.043-4.675a2.457,2.457,0,0,0-2.4-2.4c-6.774-.593-13.672-.482-20.467-.651q-5.551-.138-11.1-.263c-2.875-.065-5.775-.253-8.65-.176a2.428,2.428,0,0,0-2.315,1.762c-2.362,16.1-4.622,32.22-6.935,48.33q-1.072,7.472-2.165,14.94a2.479,2.479,0,0,0,1.677,2.952A2.416,2.416,0,0,0,18.338,270Z"/><path class="b" d="M107.933,126.653a20.417,20.417,0,0,0,9.836,2.273c3.513-.023,7.076-.708,9.891-2.9a2.413,2.413,0,0,0,0-3.394,2.462,2.462,0,0,0-3.394,0c.717-.559.121-.1-.063.014q-.3.19-.614.355c-.156.082-.892.383-.267.148-.282.106-.56.216-.847.308a14.126,14.126,0,0,1-5.025.671c-.5,0-1.006-.02-1.507-.054-.231-.016-.461-.034-.691-.057,0,0-.8-.107-.381-.043a16.4,16.4,0,0,1-2.213-.491c-.311-.093-.613-.2-.919-.309-.1-.034-.2-.086-.3-.115.6.172.2.091.038.013-.38-.179-.754-.366-1.125-.562a2.453,2.453,0,0,0-3.284.861,2.427,2.427,0,0,0,.861,3.284Z"/><path class="b" d="M116.631,103.375a46.566,46.566,0,0,1,1.1,5.016l-.086-.638a2.968,2.968,0,0,1,.019.692l.086-.638a1.671,1.671,0,0,1-.076.312l.242-.574a1.211,1.211,0,0,1-.11.2l.375-.485a1.041,1.041,0,0,1-.164.161l.486-.375a3.346,3.346,0,0,1-.4.21l.573-.242a2.9,2.9,0,0,1-.67.2l.639-.086a2.7,2.7,0,0,1-.629,0l.638.085c-.237-.033-.469-.09-.707-.122a2.655,2.655,0,0,0-1.849.242,2.4,2.4,0,0,0-.861,3.283,2.292,2.292,0,0,0,1.434,1.1c.525.071,1.033.2,1.566.228a4.956,4.956,0,0,0,2.288-.541,3.262,3.262,0,0,0,1.821-2.157,5.463,5.463,0,0,0-.024-2.343c-.273-1.615-.646-3.217-1.062-4.8a2.4,2.4,0,0,0-4.628,1.276Z"/><path class="b" d="M89.946,89.217c-.838,2.722-.292,8.983,4.865,9.516,6.815-.04,7.178-7.61,4.883-11.17C97.816,84.649,92.293,83.437,89.946,89.217Z"/><path class="b" d="M144.523,89.217c.837,2.722.292,8.984-4.865,9.516-6.815-.041-7.178-7.611-4.884-11.17C136.652,84.649,142.176,83.437,144.523,89.217Z"/></svg>